<?xml version="1.0" encoding="UTF-8"?>
<svg xmlns="http://www.w3.org/2000/svg" version="1.1" width="250" height="250" viewBox="0 0 250 250"><rect x="0" y="0" width="250" height="250" fill="#fefefe"/><g transform="scale(4.717)"><g transform="translate(4,4)"><path fill-rule="evenodd" d="M8 0L8 4L10 4L10 7L9 7L9 5L8 5L8 7L9 7L9 8L10 8L10 9L7 9L7 8L4 8L4 9L2 9L2 8L0 8L0 9L2 9L2 10L1 10L1 11L0 11L0 13L1 13L1 11L3 11L3 12L2 12L2 13L3 13L3 14L4 14L4 12L6 12L6 13L7 13L7 14L5 14L5 15L4 15L4 17L5 17L5 18L6 18L6 19L4 19L4 18L3 18L3 20L1 20L1 21L0 21L0 23L1 23L1 24L0 24L0 27L1 27L1 26L2 26L2 24L3 24L3 25L8 25L8 26L5 26L5 27L4 27L4 26L3 26L3 27L2 27L2 28L0 28L0 31L2 31L2 32L0 32L0 33L1 33L1 34L2 34L2 33L3 33L3 32L5 32L5 34L4 34L4 35L1 35L1 36L0 36L0 37L1 37L1 36L3 36L3 37L5 37L5 34L6 34L6 35L7 35L7 36L6 36L6 37L7 37L7 36L8 36L8 38L9 38L9 39L8 39L8 41L9 41L9 39L10 39L10 38L11 38L11 41L10 41L10 42L9 42L9 43L8 43L8 45L11 45L11 44L12 44L12 45L13 45L13 44L12 44L12 43L10 43L10 42L11 42L11 41L12 41L12 42L13 42L13 43L14 43L14 45L15 45L15 43L16 43L16 45L19 45L19 42L18 42L18 44L17 44L17 43L16 43L16 41L17 41L17 40L18 40L18 41L20 41L20 42L21 42L21 41L24 41L24 42L25 42L25 43L24 43L24 44L23 44L23 43L22 43L22 45L25 45L25 43L26 43L26 45L28 45L28 43L31 43L31 40L32 40L32 45L33 45L33 44L34 44L34 45L35 45L35 43L34 43L34 41L33 41L33 39L31 39L31 36L29 36L29 37L28 37L28 36L27 36L27 37L26 37L26 36L23 36L23 35L25 35L25 32L24 32L24 33L22 33L22 32L23 32L23 31L26 31L26 35L28 35L28 34L29 34L29 35L32 35L32 38L34 38L34 36L36 36L36 37L35 37L35 38L36 38L36 40L35 40L35 39L34 39L34 40L35 40L35 42L36 42L36 41L37 41L37 42L39 42L39 44L40 44L40 45L41 45L41 44L40 44L40 43L41 43L41 42L42 42L42 43L43 43L43 41L44 41L44 43L45 43L45 41L44 41L44 38L45 38L45 35L44 35L44 33L45 33L45 31L44 31L44 30L45 30L45 29L43 29L43 28L45 28L45 27L44 27L44 26L43 26L43 28L41 28L41 26L42 26L42 24L41 24L41 22L43 22L43 24L44 24L44 22L45 22L45 20L44 20L44 21L43 21L43 20L42 20L42 21L41 21L41 19L39 19L39 18L41 18L41 17L42 17L42 19L44 19L44 18L43 18L43 17L45 17L45 16L44 16L44 14L45 14L45 12L42 12L42 14L43 14L43 17L42 17L42 16L41 16L41 17L40 17L40 16L39 16L39 15L41 15L41 13L40 13L40 14L39 14L39 13L38 13L38 11L39 11L39 12L40 12L40 11L44 11L44 9L45 9L45 8L41 8L41 10L40 10L40 11L39 11L39 9L40 9L40 8L39 8L39 9L38 9L38 11L37 11L37 13L36 13L36 12L35 12L35 13L36 13L36 14L35 14L35 15L34 15L34 11L31 11L31 10L32 10L32 9L33 9L33 10L34 10L34 8L35 8L35 6L34 6L34 8L33 8L33 5L32 5L32 3L34 3L34 1L33 1L33 0L29 0L29 2L32 2L32 3L31 3L31 4L30 4L30 5L32 5L32 7L31 7L31 6L30 6L30 7L31 7L31 8L29 8L29 9L28 9L28 7L29 7L29 6L28 6L28 5L29 5L29 3L28 3L28 0L25 0L25 1L23 1L23 0L20 0L20 1L21 1L21 2L22 2L22 4L21 4L21 3L20 3L20 2L19 2L19 1L18 1L18 2L17 2L17 1L16 1L16 0L15 0L15 1L14 1L14 0L11 0L11 1L10 1L10 2L9 2L9 0ZM36 0L36 1L35 1L35 4L34 4L34 5L37 5L37 3L36 3L36 1L37 1L37 0ZM22 1L22 2L23 2L23 3L24 3L24 4L25 4L25 5L26 5L26 6L25 6L25 7L26 7L26 8L25 8L25 9L24 9L24 11L23 11L23 9L20 9L20 8L19 8L19 7L20 7L20 6L19 6L19 5L20 5L20 4L19 4L19 2L18 2L18 3L17 3L17 2L15 2L15 3L14 3L14 2L12 2L12 3L11 3L11 2L10 2L10 3L11 3L11 4L13 4L13 3L14 3L14 5L13 5L13 7L12 7L12 5L11 5L11 7L12 7L12 8L11 8L11 9L10 9L10 11L9 11L9 12L10 12L10 13L8 13L8 14L10 14L10 15L9 15L9 16L10 16L10 15L11 15L11 16L12 16L12 15L11 15L11 11L12 11L12 14L15 14L15 15L14 15L14 16L15 16L15 17L12 17L12 19L10 19L10 18L11 18L11 17L9 17L9 18L8 18L8 19L6 19L6 20L9 20L9 21L10 21L10 23L9 23L9 25L10 25L10 26L11 26L11 27L12 27L12 28L13 28L13 26L15 26L15 27L14 27L14 28L16 28L16 26L17 26L17 27L18 27L18 26L19 26L19 28L20 28L20 26L22 26L22 27L23 27L23 28L22 28L22 29L16 29L16 30L15 30L15 29L13 29L13 30L12 30L12 31L11 31L11 30L10 30L10 32L9 32L9 29L8 29L8 28L7 28L7 27L6 27L6 28L7 28L7 29L5 29L5 28L3 28L3 29L2 29L2 30L4 30L4 31L5 31L5 32L7 32L7 33L6 33L6 34L7 34L7 33L8 33L8 32L9 32L9 33L10 33L10 32L11 32L11 33L12 33L12 34L13 34L13 38L14 38L14 35L15 35L15 34L13 34L13 33L12 33L12 32L15 32L15 33L16 33L16 34L17 34L17 33L18 33L18 35L17 35L17 36L18 36L18 35L19 35L19 36L20 36L20 34L21 34L21 32L22 32L22 31L23 31L23 28L25 28L25 30L26 30L26 29L27 29L27 30L29 30L29 31L27 31L27 32L28 32L28 33L27 33L27 34L28 34L28 33L30 33L30 32L31 32L31 33L32 33L32 35L33 35L33 36L34 36L34 35L35 35L35 34L36 34L36 35L37 35L37 34L38 34L38 35L39 35L39 36L41 36L41 38L42 38L42 41L43 41L43 38L44 38L44 35L43 35L43 34L42 34L42 33L44 33L44 32L43 32L43 30L42 30L42 31L41 31L41 29L40 29L40 27L39 27L39 26L38 26L38 25L35 25L35 24L34 24L34 27L33 27L33 26L32 26L32 25L31 25L31 24L32 24L32 23L36 23L36 22L35 22L35 21L34 21L34 20L36 20L36 19L35 19L35 17L34 17L34 16L33 16L33 17L34 17L34 19L33 19L33 18L32 18L32 17L31 17L31 18L32 18L32 19L30 19L30 20L29 20L29 19L28 19L28 25L29 25L29 24L30 24L30 25L31 25L31 26L32 26L32 27L33 27L33 29L32 29L32 28L31 28L31 27L30 27L30 26L29 26L29 27L28 27L28 29L27 29L27 28L25 28L25 27L26 27L26 25L23 25L23 26L22 26L22 25L20 25L20 23L19 23L19 21L18 21L18 20L19 20L19 19L20 19L20 20L22 20L22 19L20 19L20 17L18 17L18 19L17 19L17 17L16 17L16 14L17 14L17 15L18 15L18 16L19 16L19 15L20 15L20 16L21 16L21 17L22 17L22 18L23 18L23 19L24 19L24 20L25 20L25 24L27 24L27 23L26 23L26 21L27 21L27 19L26 19L26 20L25 20L25 17L24 17L24 16L22 16L22 15L26 15L26 16L28 16L28 18L29 18L29 17L30 17L30 16L31 16L31 15L32 15L32 12L31 12L31 11L30 11L30 10L29 10L29 11L28 11L28 9L27 9L27 11L28 11L28 12L27 12L27 13L28 13L28 14L29 14L29 15L26 15L26 13L25 13L25 9L26 9L26 8L27 8L27 7L28 7L28 6L27 6L27 5L28 5L28 3L27 3L27 1L26 1L26 2L23 2L23 1ZM25 3L25 4L26 4L26 5L27 5L27 4L26 4L26 3ZM15 4L15 5L14 5L14 7L15 7L15 8L13 8L13 9L15 9L15 10L16 10L16 11L15 11L15 12L14 12L14 10L12 10L12 9L11 9L11 10L12 10L12 11L13 11L13 12L14 12L14 13L15 13L15 14L16 14L16 13L19 13L19 14L20 14L20 15L21 15L21 14L20 14L20 13L24 13L24 12L23 12L23 11L22 11L22 12L20 12L20 11L21 11L21 10L20 10L20 11L19 11L19 10L18 10L18 9L19 9L19 8L17 8L17 5L16 5L16 4ZM21 5L21 8L24 8L24 5ZM15 6L15 7L16 7L16 6ZM18 6L18 7L19 7L19 6ZM22 6L22 7L23 7L23 6ZM26 6L26 7L27 7L27 6ZM36 6L36 8L37 8L37 6ZM15 8L15 9L16 9L16 10L17 10L17 9L16 9L16 8ZM4 9L4 10L3 10L3 11L5 11L5 9ZM6 9L6 10L7 10L7 9ZM35 9L35 11L36 11L36 10L37 10L37 9ZM6 11L6 12L8 12L8 11ZM16 11L16 12L15 12L15 13L16 13L16 12L19 12L19 13L20 13L20 12L19 12L19 11ZM29 12L29 13L30 13L30 15L31 15L31 12ZM37 13L37 15L36 15L36 17L37 17L37 18L38 18L38 17L39 17L39 16L37 16L37 15L38 15L38 13ZM1 14L1 15L0 15L0 19L2 19L2 17L3 17L3 16L1 16L1 15L2 15L2 14ZM5 15L5 17L6 17L6 18L7 18L7 17L6 17L6 16L8 16L8 15ZM15 17L15 20L10 20L10 19L9 19L9 20L10 20L10 21L11 21L11 22L13 22L13 21L15 21L15 22L16 22L16 21L17 21L17 19L16 19L16 17ZM13 18L13 19L14 19L14 18ZM32 19L32 21L30 21L30 24L31 24L31 23L32 23L32 22L34 22L34 21L33 21L33 19ZM37 19L37 20L38 20L38 19ZM3 20L3 21L2 21L2 23L3 23L3 24L4 24L4 23L3 23L3 22L4 22L4 20ZM15 20L15 21L16 21L16 20ZM5 21L5 24L8 24L8 21ZM21 21L21 24L24 24L24 21ZM37 21L37 24L40 24L40 21ZM6 22L6 23L7 23L7 22ZM17 22L17 23L13 23L13 24L12 24L12 23L11 23L11 25L12 25L12 26L13 26L13 25L15 25L15 26L16 26L16 25L17 25L17 26L18 26L18 25L19 25L19 23L18 23L18 22ZM22 22L22 23L23 23L23 22ZM38 22L38 23L39 23L39 22ZM17 23L17 25L18 25L18 23ZM40 25L40 26L41 26L41 25ZM24 26L24 27L25 27L25 26ZM35 26L35 27L34 27L34 28L35 28L35 27L36 27L36 28L38 28L38 29L36 29L36 30L37 30L37 31L36 31L36 32L37 32L37 33L41 33L41 32L39 32L39 31L38 31L38 30L39 30L39 27L38 27L38 26L37 26L37 27L36 27L36 26ZM29 27L29 28L30 28L30 29L29 29L29 30L31 30L31 28L30 28L30 27ZM4 29L4 30L5 30L5 31L7 31L7 32L8 32L8 30L5 30L5 29ZM33 29L33 31L32 31L32 33L33 33L33 34L34 34L34 33L35 33L35 31L34 31L34 29ZM18 30L18 31L19 31L19 32L18 32L18 33L20 33L20 32L21 32L21 31L22 31L22 30L21 30L21 31L19 31L19 30ZM29 31L29 32L30 32L30 31ZM16 32L16 33L17 33L17 32ZM8 34L8 35L9 35L9 38L10 38L10 37L12 37L12 35L11 35L11 36L10 36L10 35L9 35L9 34ZM21 35L21 36L22 36L22 35ZM42 36L42 37L43 37L43 36ZM15 37L15 40L14 40L14 39L12 39L12 40L13 40L13 41L15 41L15 40L17 40L17 39L19 39L19 40L20 40L20 39L19 39L19 37ZM21 37L21 40L24 40L24 37ZM25 37L25 39L26 39L26 37ZM37 37L37 40L40 40L40 37ZM16 38L16 39L17 39L17 38ZM22 38L22 39L23 39L23 38ZM27 38L27 40L26 40L26 41L25 41L25 42L26 42L26 41L28 41L28 42L29 42L29 39L30 39L30 38ZM38 38L38 39L39 39L39 38ZM39 41L39 42L40 42L40 41ZM14 42L14 43L15 43L15 42ZM9 43L9 44L10 44L10 43ZM20 43L20 45L21 45L21 43ZM36 43L36 45L38 45L38 44L37 44L37 43ZM30 44L30 45L31 45L31 44ZM42 44L42 45L43 45L43 44ZM44 44L44 45L45 45L45 44ZM0 0L0 7L7 7L7 0ZM1 1L1 6L6 6L6 1ZM2 2L2 5L5 5L5 2ZM38 0L38 7L45 7L45 0ZM39 1L39 6L44 6L44 1ZM40 2L40 5L43 5L43 2ZM0 38L0 45L7 45L7 38ZM1 39L1 44L6 44L6 39ZM2 40L2 43L5 43L5 40Z" fill="#000000"/></g></g></svg>
